<svg width="60" height="60" viewBox="0 0 60 60" fill="none" xmlns="http://www.w3.org/2000/svg">
<circle cx="30" cy="30" r="30" fill="#FF6A00"/>
<path d="M52.1668 37.2447C51.9405 37.2447 51.7425 37.3966 51.6838 37.6152C51.6252 37.8337 51.7206 38.0643 51.9165 38.1776C53.6373 39.1725 54.6771 41.1531 54.2503 43.268L54.2502 43.268L54.248 43.2805C53.866 45.457 51.9955 47.2146 49.8021 47.4509L49.8018 47.4509C46.7368 47.7831 44.1578 45.4128 44.1578 42.4299V42.4296V42.4293V42.429V42.4287V42.4284V42.4281V42.4278V42.4275V42.4272V42.4269V42.4266V42.4263V42.426V42.4257V42.4254V42.4252V42.4249V42.4246V42.4243V42.424V42.4237V42.4235V42.4232V42.4229V42.4226V42.4223V42.4221V42.4218V42.4215V42.4213V42.421V42.4207V42.4204V42.4202V42.4199V42.4196V42.4194V42.4191V42.4189V42.4186V42.4183V42.4181V42.4178V42.4176V42.4173V42.417V42.4168V42.4165V42.4163V42.416V42.4158V42.4155V42.4153V42.415V42.4148V42.4145V42.4143V42.414V42.4138V42.4136V42.4133V42.4131V42.4128V42.4126V42.4124V42.4121V42.4119V42.4117V42.4114V42.4112V42.411V42.4107V42.4105V42.4103V42.41V42.4098V42.4096V42.4094V42.4091V42.4089V42.4087V42.4085V42.4082V42.408V42.4078V42.4076V42.4073V42.4071V42.4069V42.4067V42.4065V42.4063V42.406V42.4058V42.4056V42.4054V42.4052V42.405V42.4048V42.4046V42.4044V42.4042V42.4039V42.4037V42.4035V42.4033V42.4031V42.4029V42.4027V42.4025V42.4023V42.4021V42.4019V42.4017V42.4015V42.4013V42.4011V42.4009V42.4007V42.4005V42.4003V42.4001V42.3999V42.3997V42.3996V42.3994V42.3992V42.399V42.3988V42.3986V42.3984V42.3982V42.398V42.3978V42.3977V42.3975V42.3973V42.3971V42.3969V42.3967V42.3965V42.3964V42.3962V42.396V42.3958V42.3956V42.3955V42.3953V42.3951V42.3949V42.3947V42.3946V42.3944V42.3942V42.394V42.3939V42.3937V42.3935V42.3933V42.3932V42.393V42.3928V42.3926V42.3925V42.3923V42.3921V42.392V42.3918V42.3916V42.3914V42.3913V42.3911V42.3909V42.3908V42.3906V42.3904V42.3903V42.3901V42.3899V42.3898V42.3896V42.3894V42.3893V42.3891V42.3889V42.3888V42.3886V42.3884V42.3883V42.3881V42.388V42.3878V42.3876V42.3875V42.3873V42.3871V42.387V42.3868V42.3867V42.3865V42.3863V42.3862V42.386V42.3859V42.3857V42.3856V42.3854V42.3852V42.3851V42.3849V42.3848V42.3846V42.3844V42.3843V42.3841V42.384V42.3838V42.3837V42.3835V42.3834V42.3832V42.383V42.3829V42.3827V42.3826V42.3824V42.3823V42.3821V42.382V42.3818V42.3817V42.3815V42.3813V42.3812V42.381V42.3809V42.3807V42.3806V42.3804V42.3803V42.3801V42.38V42.3798V42.3797V42.3795V42.3794V42.3792V42.379V42.3789V42.3787V42.3786V42.3784V42.3783V42.3781V42.378V42.3778V42.3777V42.3775V42.3774V42.3772V42.3771V42.3769V42.3768V42.3766V42.3765V42.3763V42.3762V42.376V42.3758V42.3757V42.3755V42.3754V42.3752V42.3751V42.3749V42.3748V42.3746V42.3745V42.3743V42.3742V42.374V42.3738V42.3737V42.3735V42.3734V42.3732V42.3731V42.3729V42.3728V42.3726V42.3725V42.3723V42.3721V42.372V42.3718V42.3717V42.3715V42.3714V42.3712V42.3711V42.3709V42.3707V42.3706V42.3704V42.3703V42.3701V42.3699V42.3698V42.3696V42.3695V42.3693V42.3692V42.369V42.3688V42.3687V42.3685V42.3683V42.3682V42.368V42.3679V42.3677V42.3675V42.3674V42.3672V42.3671V42.3669V42.3667V42.3666V42.3664V42.3662V42.3661V42.3659V42.3657V42.3656V42.3654V42.3652V42.3651V42.3649V42.3647V42.3646V42.3644V42.3642V42.364V42.3639V42.3637V42.3635V42.3634V42.3632V42.363V42.3628V42.3627V42.3625V42.3623V42.3622V42.362V42.3618V42.3616V42.3615V42.3613V42.3611V42.3609V42.3607V42.3606V42.3604V42.3602V42.36V42.3598V42.3597V42.3595V42.3593V42.3591V42.3589V42.3587V42.3586V42.3584V42.3582V42.358V42.3578V42.3576V42.3574V42.3573V42.3571V42.3569V42.3567V42.3565V42.3563V42.3561V42.3559V42.3557V42.3555V42.3553V42.3551V42.3549V42.3547V42.3545V42.3543V42.3542V42.354V42.3538V42.3535V42.3533V42.3531V42.3529V42.3527V42.3525V42.3523V42.3521V42.3519V42.3517V42.3515V42.3513V42.3511V42.3509V42.3507V42.3505V42.3503V42.35V42.3498V42.3496V42.3494V42.3492V42.349V42.3487V42.3485V42.3483V42.3481V42.3479V42.3477V42.3474V42.3472V42.347V42.3468V42.3465V42.3463V42.3461V42.3459V42.3456V42.3454V42.3452V42.3449V42.3447V42.3445V42.3442V42.344V42.3438V42.3435V42.3433V42.3431V42.3428V42.3426V42.3423V42.3421V42.3419V42.3416V42.3414V42.3411V42.3409V42.3406V42.3404V42.3401V42.3399V42.3396V42.3394V42.3391V42.3389V42.3386V42.3384V42.3381V42.3378V42.3376V42.3373V42.3371V42.3368V42.3365V42.3363V42.336V42.3358V42.3355V42.3352V42.3349V42.3347V42.3344V42.3341V42.3339V42.3336V42.3333V42.333V42.3328V42.3325V42.3322V42.3319V42.3316V42.3314V42.3311V42.3308V42.3305V42.3302V42.3299V42.3296V42.3293V42.3291V42.3288V42.3285V42.3282V42.3279V42.3276V42.3273V42.327V42.3267V42.3264V42.3261V42.3258C44.1578 42.1186 44.0301 41.9329 43.8366 41.8588C43.6431 41.7847 43.4239 41.8377 43.2856 41.9919C42.9398 42.3775 42.4898 42.6066 42.0296 42.6066H31.4722C31.2073 42.6066 31.0427 42.6055 30.8341 42.5641C30.697 42.5369 30.5549 42.5684 30.442 42.6508C30.3292 42.7332 30.256 42.859 30.2401 42.9978C29.9534 45.5078 27.8005 47.5 25.1693 47.5C22.3917 47.5 20.1017 45.2699 20.1017 42.4819C20.1017 42.4145 20.1103 42.3417 20.1241 42.2322L20.1254 42.2218C20.1377 42.1241 20.1543 41.9932 20.1543 41.8573C20.1543 41.5811 19.9304 41.3573 19.6543 41.3573H18.4462C18.4284 41.3573 18.4084 41.35 18.3911 41.3329C18.3762 41.3181 18.3701 41.3027 18.3687 41.2901C18.4225 40.1626 18.7374 37.7868 20.2795 36.1629C20.3821 36.0548 20.4311 35.9066 20.4133 35.7587C20.3954 35.6107 20.3125 35.4785 20.1871 35.3979L17.3648 33.5849C17.274 33.5147 17.2468 33.4092 17.2774 33.3065C17.293 33.2542 17.3216 33.2138 17.3543 33.1878C17.3837 33.1645 17.4282 33.1431 17.5008 33.1431H34.361C34.5913 33.1431 34.7552 33.3404 34.7131 33.5758L34.4015 34.8113C34.3529 35.004 34.1863 35.1104 34.0459 35.1104H33.4156C33.1448 35.1104 32.9232 35.326 32.9158 35.5967L32.8111 39.4375C32.7421 40.4248 33.5238 41.1599 34.4661 41.1599H40.4013C41.0664 41.1599 41.6634 40.8939 42.1189 40.4424C42.1234 40.438 42.1278 40.4334 42.1322 40.4288L44.1281 38.2945L44.1288 38.2937C44.8683 37.4997 45.1751 36.4032 44.9905 35.3665C44.9898 35.3627 44.9891 35.3589 44.9883 35.3551C44.9876 35.3516 44.9869 35.3482 44.9861 35.3448C44.8552 34.7611 44.7071 34.0559 44.5489 33.3031C44.2072 31.677 43.8189 29.8287 43.4574 28.5031C43.4089 28.3252 43.2663 28.1884 43.0865 28.1473C42.8446 28.0919 42.6974 27.9954 42.5829 27.8328C42.4555 27.6519 42.3412 27.3491 42.2667 26.8279C42.2621 26.5199 42.2007 26.2278 42.1467 26.0136C42.0842 25.7658 41.8449 25.605 41.5918 25.6408L40.1211 25.8491C40.0146 25.8642 39.9157 25.9132 39.8393 25.989C39.6873 26.1397 39.5076 26.2085 39.2458 26.2085C39.1905 26.2085 39.1487 26.2082 39.1113 26.2045C39.0982 26.2032 39.0893 26.2018 39.0838 26.2007C39.0552 26.1878 39.0255 26.1777 38.9949 26.1703L35.5283 25.3374C35.5167 25.3346 35.5049 25.3322 35.493 25.3303C35.3224 25.3021 35.1096 25.1741 34.9602 24.9889L34.9603 24.9889L34.9538 24.9812L34.5711 25.303L34.9538 24.9812L34.9538 24.9812L34.9538 24.9811L34.9536 24.9809L34.9529 24.9801L34.9505 24.9772L34.9412 24.9662L34.9056 24.9242C34.8747 24.8878 34.8298 24.8351 34.7734 24.7693C34.6606 24.6377 34.5014 24.4537 34.3157 24.2433C34.1837 24.0938 33.9755 24.037 33.7859 24.0988C33.5962 24.1606 33.4615 24.3292 33.443 24.5278L33.1279 27.9116C33.1148 28.0516 33.1614 28.1907 33.2561 28.2947C33.3509 28.3987 33.485 28.4579 33.6257 28.4579H38.1953C38.5669 28.4579 38.883 28.5804 39.0777 28.8056C39.3055 29.0689 39.4263 29.4143 39.4286 29.7695L39.0616 37.9796C39.023 38.6432 38.4618 39.1708 37.7751 39.1708H37.7374C37.0471 39.1263 36.5048 38.5593 36.5411 37.8753L36.5412 37.8753L36.5414 37.8692L36.804 31.414C36.8096 31.278 36.7594 31.1456 36.6651 31.0474C36.5708 30.9492 36.4406 30.8937 36.3044 30.8937H28.9511C28.603 30.8937 28.2237 30.734 28.0161 30.494C27.791 30.2336 27.677 29.9022 27.715 29.5199L28.5542 21.9306C28.6943 20.9729 29.1936 20.1874 29.9801 19.7544C29.9861 19.7511 29.9921 19.7476 29.9979 19.7441C30.3465 19.5329 30.7523 19.4813 31.2118 19.5216C31.5912 19.555 31.962 19.6449 32.3398 19.7365C32.4303 19.7584 32.5211 19.7804 32.6126 19.8018C33.3386 19.9931 33.7887 20.4722 34.0238 20.7225C34.0541 20.7548 34.0809 20.7833 34.1042 20.8069C34.9011 21.6801 35.4585 22.3491 35.9224 22.9058C36.0318 23.0371 36.136 23.1622 36.2369 23.2822C36.3049 23.3631 36.3968 23.4203 36.4993 23.4457L39.4407 24.1745C39.4483 24.1764 39.456 24.1781 39.4637 24.1797C39.7876 24.2439 40.0751 24.5108 40.1854 24.8752C40.2552 25.1057 40.4793 25.2537 40.7187 25.2274L41.1865 25.1758C42.2985 25.0752 43.3612 24.835 44.4261 24.5943C44.5043 24.5767 44.5824 24.559 44.6606 24.5414L44.6606 24.5415L44.671 24.5389C45.1002 24.4326 45.4079 24.3762 45.6142 24.3898C45.6962 24.3953 45.7295 24.4104 45.7375 24.4147C45.7396 24.4185 45.7444 24.4281 45.7494 24.4466L45.7494 24.4466L45.7511 24.4524C45.7879 24.58 45.8222 24.694 45.8535 24.7977C45.9197 25.0174 45.972 25.191 46.004 25.3498C46.0417 25.5368 46.1826 25.686 46.3671 25.7345C46.5516 25.783 46.7476 25.7223 46.8723 25.578C47.0898 25.3265 47.4231 25.1783 47.7547 25.1783H48.5678V28.1347H47.7547C47.5026 28.1347 47.335 28.0948 47.1699 27.9967C46.9804 27.884 46.7395 27.9087 46.5769 28.0575C46.4142 28.2063 46.3682 28.444 46.4636 28.6428L48.506 32.8989C48.6856 33.3261 49.086 33.6095 49.4887 33.7425C49.4992 33.746 49.5098 33.7491 49.5204 33.7519C50.1076 33.9037 51.1827 34.2277 52.1525 34.8093C53.1265 35.3934 53.9099 36.1846 54.0881 37.2447H52.2193H52.1668ZM22.1229 41.3573C21.8939 41.3573 21.6941 41.5129 21.6381 41.735C21.5702 42.0041 21.5703 42.2658 21.5704 42.4627L21.5704 42.4819C21.5704 44.5322 23.2166 46.1574 25.2744 46.1574C27.3214 46.1574 28.9887 44.5382 28.8732 42.4656C28.8716 42.3509 28.8535 42.2439 28.8419 42.1755L28.8401 42.1648C28.8257 42.0793 28.8208 42.0427 28.8208 42.0134V41.8573C28.8208 41.5811 28.5969 41.3573 28.3208 41.3573H26.4299C26.2563 41.3573 26.0951 41.4473 26.0041 41.5952C25.9131 41.743 25.9053 41.9275 25.9835 42.0825C26.0576 42.2293 26.0875 42.3609 26.0875 42.4819C26.0875 42.943 25.7252 43.3354 25.2218 43.3354C24.7457 43.3354 24.3562 42.97 24.3562 42.4819C24.3562 42.3187 24.3808 42.2398 24.4602 42.0825C24.5384 41.9275 24.5306 41.743 24.4396 41.5952C24.3486 41.4473 24.1874 41.3573 24.0138 41.3573H22.1229ZM45.6265 42.4819C45.6265 44.5322 47.2727 46.1574 49.3304 46.1574C51.3303 46.1574 53.0344 44.5375 53.0344 42.4819C53.0344 40.4317 51.3882 38.8064 49.3304 38.8064C47.2727 38.8064 45.6265 40.4317 45.6265 42.4819Z" stroke="white" stroke-linejoin="round"/>
<path d="M48.4651 42.4819C48.4651 42.0208 48.8274 41.6284 49.3308 41.6284C49.8069 41.6284 50.1964 41.9938 50.1964 42.4819C50.1964 42.943 49.8342 43.3354 49.3308 43.3354C48.8547 43.3354 48.4651 42.97 48.4651 42.4819Z" stroke="white" stroke-linejoin="round"/>
<path d="M24.3814 30.9457H17.6583C17.2999 30.9457 17.0028 30.6448 17.0028 30.3004V24.0015C17.0028 23.6571 17.2999 23.3562 17.6583 23.3562H24.3814C24.7398 23.3562 25.0369 23.6571 25.0369 24.0015V30.3004C25.0369 30.6448 24.7398 30.9457 24.3814 30.9457Z" stroke="white" stroke-linejoin="round"/>
<path d="M35.4198 16.0184C34.8735 15.891 34.4335 15.5481 34.1816 15.2136C35.1155 15.3548 35.8705 15.29 36.3673 15.2053C36.5355 15.6295 36.6593 15.9959 36.7506 16.3159C36.3978 16.2521 35.9612 16.1595 35.4324 16.0215L35.4325 16.0214L35.4198 16.0184Z" stroke="white" stroke-linejoin="round"/>
<path d="M36.388 18.9394C36.379 18.9368 36.3699 18.9345 36.3607 18.9325L30.5371 17.6325C30.5101 17.6256 30.489 17.6181 30.4732 17.6113C30.4675 17.6088 30.4627 17.6065 30.4587 17.6045C30.4469 17.5777 30.4327 17.552 30.4163 17.5276C30.2284 17.2482 29.9176 16.6905 29.7582 16.0412C29.5992 15.3931 29.6025 14.7077 29.9591 14.1049L29.9591 14.1049L29.9638 14.0966C30.4673 13.2071 31.5813 12.5842 32.7905 12.5078C33.7103 12.4497 34.6335 12.7109 35.3286 13.3705C34.9659 13.3741 34.5329 13.3484 34.0433 13.2567C33.5139 13.1354 33.0487 13.1822 32.6807 13.401C32.3105 13.6212 32.1112 13.9726 32.0347 14.3136L32.0347 14.3136L32.0335 14.3191C31.8831 15.0271 32.2229 15.8308 32.7323 16.4565C33.258 17.1023 34.0468 17.6675 34.9864 17.878C35.7835 18.0576 36.387 18.1646 36.8463 18.2318C36.8033 18.3602 36.7514 18.4955 36.6927 18.6486C36.6743 18.6965 36.6553 18.7462 36.6356 18.7979C36.5973 18.8661 36.5509 18.9081 36.513 18.9286C36.4791 18.9469 36.4423 18.9547 36.388 18.9394Z" stroke="white" stroke-linejoin="round"/>
<path d="M13.6392 28.947C13.6392 29.2913 13.3946 29.5402 13.0362 29.5402H6.10301C5.74464 29.5402 5.5 29.2913 5.5 28.947C5.5 28.6026 5.74464 28.3538 6.10301 28.3538H13.0362C13.3946 28.3538 13.6392 28.6026 13.6392 28.947Z" stroke="white" stroke-linejoin="round"/>
<path d="M14.3749 33.6843C14.3749 34.0286 14.1303 34.2775 13.7719 34.2775H6.89122C6.53285 34.2775 6.28821 34.0286 6.28821 33.6843C6.28821 33.3602 6.56389 33.0911 6.83869 33.0911H13.7719C14.1303 33.0911 14.3749 33.3399 14.3749 33.6843Z" stroke="white" stroke-linejoin="round"/>
<path d="M7.62632 37.8281H14.5595C14.881 37.8281 15.1625 38.0922 15.1625 38.4213C15.1625 38.7657 14.9179 39.0145 14.5595 39.0145H7.62632C7.26796 39.0145 7.02332 38.7657 7.02332 38.4213C7.02332 38.077 7.26796 37.8281 7.62632 37.8281Z" stroke="white" stroke-linejoin="round"/>
</svg>
