<svg width="60" height="60" viewBox="0 0 60 60" fill="none" xmlns="http://www.w3.org/2000/svg">
<circle cx="30" cy="30" r="30" fill="#E24329"/>
<path d="M47.9189 18.5097C47.8736 18.4128 47.8089 18.3255 47.7285 18.2528C47.648 18.1801 47.5535 18.1235 47.4503 18.0861L44.7685 17.1097C43.8857 16.3633 41.1912 14.128 40.0323 13.5592C38.8446 13.0625 37.6064 12.6865 36.3379 12.4375C36.2791 12.3252 36.193 12.2283 36.0869 12.1551C35.998 12.0925 35.8971 12.0475 35.7902 12.0226C35.6832 11.9976 35.5722 11.9933 35.4635 12.0098L15.6402 15.0762C15.5302 15.091 15.4243 15.1267 15.3288 15.1814C15.2333 15.236 15.15 15.3084 15.0838 15.3944C15.0175 15.4804 14.9698 15.5783 14.9432 15.6823C14.9166 15.7863 14.9117 15.8943 14.9289 16.0001L16.6025 25.9739C16.6345 26.1649 16.7367 26.3384 16.8903 26.4628C17.0439 26.5872 17.2387 26.6542 17.4392 26.6518C17.4852 26.6557 17.5314 26.6557 17.5773 26.6518L29.8989 24.6949C30.0074 24.6777 30.1113 24.64 30.2048 24.5841C30.2982 24.5281 30.3793 24.455 30.4434 24.3688C30.5075 24.2826 30.5533 24.1851 30.5784 24.0819C30.6034 23.9786 30.6071 23.8716 30.5892 23.7669C30.5714 23.6623 30.5323 23.5621 30.4743 23.472C30.4163 23.3819 30.3404 23.3037 30.2511 23.2419C30.1617 23.1801 30.0606 23.1358 29.9535 23.1117C29.8464 23.0876 29.7355 23.084 29.6269 23.1012L18.117 24.9168L16.7238 16.5247L34.8945 13.7004L35.8484 19.5668L34.0409 19.6193C33.9627 19.6229 33.8854 19.6365 33.8108 19.6596L31.2336 20.4666C31.063 20.5201 30.9149 20.6251 30.8109 20.7661C30.707 20.907 30.6527 21.0764 30.6562 21.2493C30.6428 21.9025 30.7074 22.555 30.8486 23.194C31.0894 23.6581 31.3888 24.0918 31.7398 24.4851C31.8388 24.6016 31.9697 24.689 32.1176 24.7375C32.2654 24.786 32.4245 24.7936 32.5766 24.7595L35.886 24.005L38.0324 24.2027L40.9109 25.8166C40.9933 25.8983 41.0933 25.9616 41.2038 26.0022L41.3293 26.0466C41.4073 26.0884 41.4922 26.1171 41.5803 26.1313L43.9275 26.9907C44.0212 27.0243 44.1203 27.0421 44.2204 27.0431C44.3991 27.0531 44.5764 27.0075 44.7262 26.9131C44.8761 26.8187 44.9906 26.6804 45.053 26.5186L47.9524 19.127C47.9892 19.0271 48.0051 18.9211 47.9994 18.8152C47.9936 18.7092 47.9663 18.6055 47.9189 18.5097ZM38.388 22.609L35.9237 22.3871C35.835 22.3732 35.7446 22.3732 35.6559 22.3871L32.7272 23.0528C32.6223 22.9243 32.5259 22.7895 32.4385 22.6493C32.3929 22.3689 32.3664 22.0858 32.359 21.802L34.225 21.217L36.8609 21.1363H36.9655H36.9948L37.0785 21.1161C37.1047 21.1099 37.13 21.1004 37.1538 21.0879L37.2291 21.0556L37.3002 21.0153L37.363 20.9669L37.4215 20.9184L37.4759 20.8579L37.5261 20.7974L37.5638 20.7288L37.6014 20.6643L37.6265 20.5876L37.6516 20.5109C37.6539 20.4854 37.6539 20.4598 37.6516 20.4343C37.6537 20.4074 37.6537 20.3805 37.6516 20.3536V20.3173C37.654 20.2999 37.654 20.2822 37.6516 20.2648V20.2164L36.6475 14.1644C37.5432 14.3609 38.4173 14.6392 39.2583 14.9955C40.095 15.399 42.2121 17.1178 43.4045 18.1103L41.095 24.0292L38.7269 22.7139C38.6224 22.6574 38.5071 22.6217 38.388 22.609ZM43.7685 25.1912L42.597 24.7635L44.9065 18.885L46.078 19.3126L43.7685 25.1912Z" fill="white"/>
<path d="M28.7057 16.8516C28.2796 16.5293 27.7797 16.31 27.2477 16.2119C26.7158 16.1138 26.1673 16.1397 25.6478 16.2876C25.1284 16.4354 24.6532 16.7009 24.2617 17.0618C23.8703 17.4227 23.574 17.8686 23.3976 18.3624C23.2211 18.8562 23.1696 19.3835 23.2474 19.9003C23.3252 20.4171 23.53 20.9086 23.8447 21.3336C24.1594 21.7586 24.575 22.1049 25.0567 22.3436C25.5383 22.5824 26.0722 22.7066 26.6138 22.7059C26.7536 22.7061 26.8934 22.698 27.0322 22.6817C27.698 22.6015 28.3242 22.3329 28.8319 21.9099C29.3397 21.4869 29.7061 20.9284 29.8851 20.3048C30.0641 19.6813 30.0477 19.0205 29.8378 18.406C29.6279 17.7914 29.234 17.2505 28.7057 16.8516ZM27.9652 20.4546C27.79 20.6679 27.5631 20.8364 27.3044 20.9451C27.0458 21.0539 26.7633 21.0996 26.482 21.0782C26.2007 21.0569 25.9291 20.969 25.6913 20.8225C25.4535 20.676 25.2568 20.4754 25.1184 20.2382C24.9801 20.001 24.9043 19.7347 24.898 19.4626C24.8916 19.1906 24.9547 18.9212 25.0818 18.6782C25.2089 18.4352 25.3961 18.2262 25.6268 18.0695C25.8574 17.9127 26.1246 17.8132 26.4046 17.7795H26.6138C26.9365 17.7806 27.2524 17.869 27.5255 18.0346C27.7987 18.2002 28.0182 18.4365 28.159 18.7165C28.2998 18.9964 28.3563 19.3089 28.322 19.6183C28.2878 19.9277 28.1641 20.2217 27.9652 20.4667V20.4546Z" fill="white"/>
<path d="M38.3962 39.8977C38.1362 39.5785 37.7609 39.3655 37.3453 39.3012C36.9297 39.2369 36.5042 39.326 36.1536 39.5507L34.5052 40.3577L30.5681 41.2332C30.5187 40.94 30.4271 40.6548 30.2962 40.3859C29.9441 39.9299 29.5288 39.5226 29.0619 39.1755C28.9603 39.0929 28.8398 39.0348 28.7103 39.006C28.5808 38.9772 28.446 38.9786 28.3172 39.0101L24.2002 40.0308L21.3636 39.9945L17.1797 38.4371V37.7754C17.1797 37.5614 17.0915 37.3562 16.9346 37.2049C16.7777 37.0535 16.5648 36.9685 16.3429 36.9685H12.8368C12.6149 36.9685 12.402 37.0535 12.2451 37.2049C12.0882 37.3562 12 37.5614 12 37.7754V47.1884C12 47.4024 12.0882 47.6077 12.2451 47.759C12.402 47.9103 12.6149 47.9953 12.8368 47.9953H16.322C16.5439 47.9953 16.7567 47.9103 16.9137 47.759C17.0706 47.6077 17.1587 47.4024 17.1587 47.1884V46.4258L25.2211 47.9953C25.2767 48.0015 25.3329 48.0015 25.3885 47.9953C25.4735 47.9951 25.5581 47.9829 25.6395 47.959L32.2626 45.9417L32.3296 45.9175L36.5134 44.235C36.5961 44.2033 36.6725 44.1583 36.7394 44.1019L38.4841 42.6574C38.8366 42.3689 39.0583 41.959 39.1021 41.5151C39.1458 41.0713 39.0082 40.6284 38.7184 40.281L38.3962 39.8977ZM15.4852 46.3815H13.6736V38.5824H15.4852V46.3815ZM37.3962 41.4349L35.7478 42.7946L31.7229 44.4085L25.3383 46.3573L17.1587 44.7676V40.164L20.9243 41.556C21.0165 41.5897 21.1143 41.6075 21.2129 41.6084L24.309 41.6488C24.3826 41.6493 24.4558 41.6398 24.5266 41.6205L28.3172 40.6804C28.5057 40.8371 28.6819 41.007 28.8444 41.1888C28.9112 41.4367 28.9602 41.6888 28.9908 41.9433L26.5892 42.7139L24.2212 43.0407C23.9992 43.0557 23.7926 43.1551 23.6466 43.317C23.5007 43.4789 23.4274 43.6901 23.443 43.9042C23.4585 44.1182 23.5616 44.3175 23.7295 44.4582C23.8974 44.5989 24.1164 44.6696 24.3383 44.6546H24.4596L26.8989 44.3157C26.9489 44.3112 26.9982 44.3003 27.0453 44.2834L30.1832 43.2747C30.3742 43.2144 30.5352 43.0879 30.6351 42.9197L34.9863 41.9433C35.054 41.9265 35.1198 41.9035 35.183 41.8747L36.9695 40.983C37.003 40.983 37.0574 40.9467 37.0908 40.9225L37.4088 41.326C37.4173 41.3435 37.4207 41.3629 37.4185 41.3822C37.4162 41.4014 37.4086 41.4196 37.3962 41.4349Z" fill="white"/>
<path d="M32.9199 40.3294C33.1418 40.3294 33.3546 40.2443 33.5116 40.093C33.6685 39.9417 33.7567 39.7364 33.7567 39.5224V28.6287C33.7567 28.4147 33.6685 28.2095 33.5116 28.0581C33.3546 27.9068 33.1418 27.8218 32.9199 27.8218H19.5314C19.3095 27.8218 19.0966 27.9068 18.9397 28.0581C18.7828 28.2095 18.6946 28.4147 18.6946 28.6287V37.8763C18.6946 38.0903 18.7828 38.2955 18.9397 38.4468C19.0966 38.5982 19.3095 38.6832 19.5314 38.6832C19.7533 38.6832 19.9662 38.5982 20.1231 38.4468C20.28 38.2955 20.3682 38.0903 20.3682 37.8763V29.4357H23.753L23.8283 34.3459C23.8291 34.4867 23.8682 34.6249 23.9416 34.7466C24.015 34.8683 24.1202 34.9694 24.2467 35.0399C24.3746 35.1082 24.5188 35.1429 24.665 35.1407C24.8131 35.1403 24.9581 35.0997 25.0834 35.0237L26.2926 34.3176L27.5185 34.9914C27.6468 35.063 27.7926 35.1003 27.9409 35.0996C28.0891 35.099 28.2345 35.0603 28.3622 34.9877C28.4899 34.915 28.5953 34.811 28.6676 34.6862C28.7399 34.5613 28.7765 34.4202 28.7736 34.2773L28.7025 29.4357H32.0831V39.5224C32.0831 39.7364 32.1713 39.9417 32.3282 40.093C32.4851 40.2443 32.6979 40.3294 32.9199 40.3294ZM26.7026 32.6634C26.5754 32.5926 26.4311 32.5553 26.2842 32.5553C26.1373 32.5553 25.993 32.5926 25.8658 32.6634L25.4893 32.8813L25.4391 29.5285L27.0457 29.5042L27.0959 32.8571L26.7026 32.6634Z" fill="white"/>
</svg>
