<svg width="60" height="60" viewBox="0 0 60 60" fill="none" xmlns="http://www.w3.org/2000/svg">
<circle cx="30.0001" cy="30" r="30" fill="#2D9CDB"/>
<path d="M47.9824 20.8723C47.9819 20.7396 47.9439 20.6097 47.8728 20.4977C47.8016 20.3857 47.7003 20.2961 47.5804 20.2392L30.3002 12.0672C30.2064 12.0229 30.104 12 30.0002 12C29.8965 12 29.7941 12.0229 29.7002 12.0672L12.4201 20.2392C12.3002 20.2961 12.1988 20.3857 12.1277 20.4977C12.0566 20.6097 12.0186 20.7396 12.0181 20.8723L12.0001 26.3038C11.9999 26.3963 12.0179 26.488 12.0532 26.5735C12.0884 26.659 12.1402 26.7367 12.2056 26.8022C12.2709 26.8677 12.3486 26.9197 12.434 26.9551C12.5195 26.9906 12.6111 27.0088 12.7036 27.0088H13.3036V47.2965C13.3036 47.4818 13.3767 47.6596 13.507 47.7913C13.6373 47.923 13.8143 47.998 13.9996 48H46.0009C46.0933 48 46.1847 47.9818 46.2701 47.9464C46.3554 47.9111 46.433 47.8593 46.4983 47.7939C46.5637 47.7286 46.6155 47.6511 46.6508 47.5657C46.6862 47.4804 46.7044 47.3889 46.7044 47.2965V27.0088H47.2969C47.3894 27.0088 47.481 26.9906 47.5665 26.9551C47.6519 26.9197 47.7295 26.8677 47.7949 26.8022C47.8602 26.7367 47.912 26.659 47.9473 26.5735C47.9825 26.488 48.0006 26.3963 48.0004 26.3038L47.9824 20.8723ZM25.5182 32.4404V31.6574H26.2577V32.2574L25.5182 32.4404ZM24.3797 33.9074C24.5036 34.0039 24.6561 34.0566 24.8132 34.0574C24.8714 34.0578 24.9295 34.0502 24.9857 34.0349L27.1382 33.4904C27.2908 33.4516 27.4261 33.3629 27.5226 33.2384C27.6191 33.114 27.6712 32.9608 27.6707 32.8034V31.6499H29.2982V38.3999H22.4687V31.6499H24.1052V33.3554C24.106 33.4622 24.1312 33.5674 24.1787 33.663C24.2263 33.7587 24.295 33.8422 24.3797 33.9074ZM33.7428 32.4404V31.6574H34.4808V32.2574L33.7428 32.4404ZM32.6028 33.9074C32.7264 34.0034 32.8782 34.0561 33.0348 34.0574C33.094 34.0576 33.153 34.05 33.2103 34.0349L35.3598 33.4904C35.513 33.452 35.649 33.3635 35.7463 33.2391C35.8435 33.1147 35.8965 32.9613 35.8968 32.8034V31.6499H37.5228V38.3999H30.7022V31.6499H32.3282V33.3554C32.3291 33.4622 32.3543 33.5674 32.4018 33.663C32.4494 33.7587 32.5181 33.8422 32.6028 33.9074ZM29.6297 39.8054H30.3707V40.4054L29.6297 40.5929V39.8054ZM37.8543 39.8054H38.5938V40.4054L37.8543 40.5929V39.8054ZM21.4066 39.8054H22.1462V40.4054L21.4066 40.5929V39.8054ZM28.2182 39.8054V41.4959C28.2172 41.604 28.2413 41.7108 28.2887 41.8079C28.3361 41.905 28.4054 41.9898 28.4912 42.0554C28.6153 42.1517 28.7677 42.2044 28.9247 42.2054C28.983 42.2058 29.041 42.1983 29.0972 42.1829L31.2497 41.6384C31.4024 41.6 31.5378 41.5117 31.6346 41.3875C31.7313 41.2633 31.7838 41.1104 31.7837 40.9529V39.8069H33.4098V46.557H26.5907V39.8069L28.2182 39.8054ZM41.6343 46.5555H34.8138V39.8054H36.4398V41.4959C36.4406 41.6835 36.5154 41.8631 36.648 41.9957C36.7806 42.1283 36.9603 42.2032 37.1478 42.2039C37.2065 42.2038 37.265 42.1962 37.3218 42.1814L39.4713 41.6369C39.6244 41.5988 39.7604 41.5107 39.8577 41.3865C39.955 41.2623 40.008 41.1092 40.0083 40.9514V39.7904H41.6343V46.5555ZM20.2666 42.0554C20.3906 42.152 20.543 42.2047 20.7001 42.2054C20.7589 42.2058 20.8174 42.1983 20.8741 42.1829L23.0252 41.6384C23.1778 41.6 23.3133 41.5117 23.41 41.3875C23.5068 41.2633 23.5593 41.1104 23.5592 40.9529V39.8069H25.1867V46.557H18.3556V39.7904H19.9936V41.4959C19.9929 41.6039 20.0172 41.7106 20.0646 41.8077C20.1119 41.9047 20.1811 41.9895 20.2666 42.0554ZM43.0383 46.593V39.0929C43.038 38.9069 42.9639 38.7285 42.8323 38.597C42.7007 38.4654 42.5224 38.3913 42.3363 38.3909H38.9268V30.9403C38.9264 30.754 38.8521 30.5755 38.7202 30.4439C38.5883 30.3123 38.4096 30.2383 38.2233 30.2383H21.7667C21.6751 30.2389 21.5845 30.2576 21.5001 30.2931C21.4157 30.3287 21.3391 30.3806 21.2748 30.4458C21.2104 30.511 21.1595 30.5882 21.125 30.6731C21.0905 30.7579 21.0731 30.8487 21.0736 30.9403V38.3864H17.6551C17.5635 38.387 17.4729 38.4056 17.3885 38.4412C17.3041 38.4768 17.2276 38.5287 17.1632 38.5939C17.0989 38.6591 17.048 38.7363 17.0135 38.8212C16.979 38.906 16.9615 38.9968 16.9621 39.0884V46.5885H14.7001V27.0388H45.3004V46.593H43.0383ZM46.0009 25.6018C45.9626 25.6059 45.9249 25.6139 45.8884 25.6258C45.8692 25.6204 45.8496 25.6164 45.8299 25.6138H14.1706C14.1508 25.6164 14.1313 25.6204 14.1121 25.6258C14.0755 25.6139 14.0378 25.6059 13.9996 25.6018H13.4086L13.4221 21.3208L30.0002 13.4802L46.5784 21.3208L46.5919 25.6018H46.0009Z" fill="white"/>
<path d="M29.9998 16.0061C29.2284 16.0061 28.4744 16.2348 27.833 16.6634C27.1917 17.0919 26.6918 17.701 26.3966 18.4137C26.1014 19.1263 26.0242 19.9105 26.1747 20.667C26.3252 21.4235 26.6966 22.1185 27.242 22.6639C27.7875 23.2093 28.4824 23.5808 29.2389 23.7312C29.9955 23.8817 30.7796 23.8045 31.4923 23.5093C32.2049 23.2141 32.814 22.7142 33.2425 22.0729C33.6711 21.4315 33.8998 20.6775 33.8998 19.9061C33.8998 18.8718 33.4889 17.8798 32.7575 17.1484C32.0261 16.417 31.0341 16.0061 29.9998 16.0061ZM29.9998 22.3782C29.5106 22.3782 29.0323 22.2331 28.6256 21.9613C28.2188 21.6895 27.9018 21.3032 27.7145 20.8512C27.5273 20.3992 27.4783 19.9019 27.5738 19.4221C27.6692 18.9423 27.9048 18.5015 28.2507 18.1556C28.5967 17.8097 29.0374 17.5741 29.5172 17.4786C29.997 17.3832 30.4944 17.4322 30.9464 17.6194C31.3983 17.8066 31.7846 18.1237 32.0564 18.5304C32.3282 18.9372 32.4733 19.4154 32.4733 19.9046C32.4725 20.5604 32.2117 21.1891 31.748 21.6528C31.2842 22.1165 30.6556 22.3774 29.9998 22.3782Z" fill="white"/>
</svg>
