<svg width="60" height="60" viewBox="0 0 60 60" fill="none" xmlns="http://www.w3.org/2000/svg">
<circle cx="30" cy="30" r="30" fill="#FF3366"/>
<path d="M29.0406 30.8662H13.3318V31.7903H29.0406V30.8662Z" fill="white"/>
<path d="M29.0406 25.1907H13.3318V26.1147H29.0406V25.1907Z" fill="white"/>
<path d="M48.7448 29.4015H47.7578C47.1068 29.4015 46.3035 28.8082 46.1197 28.1834L44.7966 23.6997C44.2664 21.9041 42.3815 20.497 40.5072 20.497H35.0522L35.0574 18.6962C35.0574 17.7091 34.6741 16.7851 33.9811 16.0868C33.2828 15.3885 32.3588 15 31.3717 15H10.6909C8.65908 15 7 16.6591 7 18.6909V38.2324C7 40.2538 8.48057 41.9548 10.6647 41.9548H13.6521C14.1824 43.7084 15.7942 45 17.721 45C20.0784 45 21.9948 43.0889 21.9948 40.7315C21.9948 38.3742 20.0784 36.4631 17.721 36.4631C15.9149 36.4631 14.3714 37.5971 13.7518 39.1932L10.7277 39.2037C10.2132 39.1932 9.77739 38.7522 9.77739 38.2324V18.6909C9.77739 18.1869 10.2027 17.7669 10.7014 17.7669H31.377C31.6237 17.7669 31.8495 17.8614 32.0228 18.0399C32.2013 18.2132 32.2958 18.4442 32.2905 18.6857L32.2538 35.9958L35.0207 36.0011L35.0522 23.2639H40.5177C41.1687 23.2639 41.9667 23.8572 42.1505 24.482L43.4736 28.9604C44.0038 30.756 45.8887 32.1631 47.763 32.1631H48.7501C49.2489 32.1631 49.6741 32.5884 49.6741 33.0872V38.2587C49.6741 38.7627 49.2541 39.1827 48.7501 39.1827H45.7312C45.1117 37.5919 43.5681 36.4578 41.762 36.4578C39.4046 36.4578 37.4935 38.3689 37.4935 40.7263C37.4935 43.0837 39.4046 44.9947 41.762 44.9947C43.6888 44.9947 45.3007 43.7084 45.8309 41.9496H48.7448C50.7819 41.9496 52.4358 40.2958 52.4358 38.2587V33.0872C52.4358 31.0553 50.7819 29.4015 48.7448 29.4015ZM17.7158 39.2352C18.5453 39.2352 19.2174 39.9072 19.2174 40.7368C19.2174 41.5663 18.5453 42.2384 17.7158 42.2384C16.8915 42.2384 16.2142 41.5663 16.2142 40.7368C16.2195 39.9072 16.8915 39.2352 17.7158 39.2352ZM41.762 42.2331C40.9324 42.2331 40.2604 41.5611 40.2604 40.7315C40.2604 39.902 40.9324 39.23 41.762 39.23C42.5915 39.23 43.2636 39.902 43.2636 40.7315C43.2636 41.5611 42.5915 42.2331 41.762 42.2331Z" fill="white"/>
<path d="M24.3836 39.188L24.3889 41.9549H34.9944V39.188H24.3836Z" fill="white"/>
</svg>
